<?xml version="1.0" encoding="UTF-8" standalone="no"?>
<!DOCTYPE svg PUBLIC "-//W3C//DTD SVG 1.1//EN"
 "http://www.w3.org/Graphics/SVG/1.1/DTD/svg11.dtd">
<!-- Generated by graphviz version 2.47.0 (20210316.0004)
 -->
<!-- Title: dependencies Pages: 1 -->
<svg width="1335pt" height="211pt"
 viewBox="0.00 0.00 1335.00 211.00" xmlns="http://www.w3.org/2000/svg" xmlns:xlink="http://www.w3.org/1999/xlink">
<g id="graph0" class="graph" transform="scale(1 1) rotate(0) translate(4 207)">
<title>dependencies</title>
<polygon fill="white" stroke="transparent" points="-4,4 -4,-207 1331,-207 1331,4 -4,4"/>
<text text-anchor="start" x="642.51" y="-42.4" font-family="Times-12" font-weight="bold" font-size="14.00">Legend</text>
<polygon fill="#ffffb3" stroke="transparent" points="429.5,-10 429.5,-30 449.5,-30 449.5,-10 429.5,-10"/>
<text text-anchor="start" x="453.13" y="-15.4" font-family="Times-12" font-size="14.00"> &#160;Declarations</text>
<polygon fill="#8dd3c7" stroke="transparent" points="542.5,-10 542.5,-30 562.5,-30 562.5,-10 542.5,-10"/>
<text text-anchor="start" x="566.23" y="-15.4" font-family="Times-12" font-size="14.00"> &#160;Module</text>
<polygon fill="#80b1d3" stroke="transparent" points="628.5,-10 628.5,-30 648.5,-30 648.5,-10 628.5,-10"/>
<text text-anchor="start" x="652.28" y="-15.4" font-family="Times-12" font-size="14.00"> &#160;Bootstrap</text>
<polygon fill="#fdb462" stroke="transparent" points="725.5,-10 725.5,-30 745.5,-30 745.5,-10 725.5,-10"/>
<text text-anchor="start" x="749.17" y="-15.4" font-family="Times-12" font-size="14.00"> &#160;Providers</text>
<polygon fill="#fb8072" stroke="transparent" points="821.5,-10 821.5,-30 841.5,-30 841.5,-10 821.5,-10"/>
<text text-anchor="start" x="845.23" y="-15.4" font-family="Times-12" font-size="14.00"> &#160;Exports</text>
<g id="clust1" class="cluster">
<title>cluster_AppModule</title>
<polygon fill="none" stroke="black" stroke-dasharray="1,5" points="8,-70 8,-195 1319,-195 1319,-70 8,-70"/>
</g>
<g id="clust3" class="cluster">
<title>cluster_AppModule_imports</title>
<polygon fill="none" stroke="black" points="154,-78 154,-130 1311,-130 1311,-78 154,-78"/>
</g>
<g id="clust6" class="cluster">
<title>cluster_AppModule_providers</title>
<polygon fill="none" stroke="black" points="16,-78 16,-130 146,-130 146,-78 16,-78"/>
</g>
<!-- AuthModule -->
<g id="node1" class="node">
<title>AuthModule</title>
<polygon fill="#8dd3c7" stroke="black" points="1302.55,-122 1299.55,-126 1278.55,-126 1275.55,-122 1215.45,-122 1215.45,-86 1302.55,-86 1302.55,-122"/>
<text text-anchor="middle" x="1259" y="-99.8" font-family="Times,serif" font-size="14.00">AuthModule</text>
</g>
<!-- AppModule -->
<g id="node9" class="node">
<title>AppModule</title>
<polygon fill="#8dd3c7" stroke="black" points="673.66,-187 670.66,-191 649.66,-191 646.66,-187 590.34,-187 590.34,-151 673.66,-151 673.66,-187"/>
<text text-anchor="middle" x="632" y="-164.8" font-family="Times,serif" font-size="14.00">AppModule</text>
</g>
<!-- AuthModule&#45;&gt;AppModule -->
<g id="edge1" class="edge">
<title>AuthModule&#45;&gt;AppModule</title>
<path fill="none" stroke="black" d="M1259,-122.01C1259,-144.49 1259,-180 1259,-180 1259,-180 684.11,-180 684.11,-180"/>
<polygon fill="black" stroke="black" points="684.11,-176.5 674.11,-180 684.11,-183.5 684.11,-176.5"/>
</g>
<!-- ConversationMembersModule -->
<g id="node2" class="node">
<title>ConversationMembersModule</title>
<polygon fill="#8dd3c7" stroke="black" points="1197.57,-122 1194.57,-126 1173.57,-126 1170.57,-122 1010.43,-122 1010.43,-86 1197.57,-86 1197.57,-122"/>
<text text-anchor="middle" x="1104" y="-99.8" font-family="Times,serif" font-size="14.00">ConversationMembersModule</text>
</g>
<!-- ConversationMembersModule&#45;&gt;AppModule -->
<g id="edge2" class="edge">
<title>ConversationMembersModule&#45;&gt;AppModule</title>
<path fill="none" stroke="black" d="M1104,-122.13C1104,-142.57 1104,-173 1104,-173 1104,-173 683.89,-173 683.89,-173"/>
<polygon fill="black" stroke="black" points="683.89,-169.5 673.89,-173 683.89,-176.5 683.89,-169.5"/>
</g>
<!-- ConversationsModule -->
<g id="node3" class="node">
<title>ConversationsModule</title>
<polygon fill="#8dd3c7" stroke="black" points="992.65,-122 989.65,-126 968.65,-126 965.65,-122 853.35,-122 853.35,-86 992.65,-86 992.65,-122"/>
<text text-anchor="middle" x="923" y="-99.8" font-family="Times,serif" font-size="14.00">ConversationsModule</text>
</g>
<!-- ConversationsModule&#45;&gt;AppModule -->
<g id="edge3" class="edge">
<title>ConversationsModule&#45;&gt;AppModule</title>
<path fill="none" stroke="black" d="M923,-122.27C923,-140.56 923,-166 923,-166 923,-166 683.69,-166 683.69,-166"/>
<polygon fill="black" stroke="black" points="683.69,-162.5 673.69,-166 683.69,-169.5 683.69,-162.5"/>
</g>
<!-- DatabaseModule -->
<g id="node4" class="node">
<title>DatabaseModule</title>
<polygon fill="#8dd3c7" stroke="black" points="835.35,-122 832.35,-126 811.35,-126 808.35,-122 724.65,-122 724.65,-86 835.35,-86 835.35,-122"/>
<text text-anchor="middle" x="780" y="-99.8" font-family="Times,serif" font-size="14.00">DatabaseModule</text>
</g>
<!-- DatabaseModule&#45;&gt;AppModule -->
<g id="edge4" class="edge">
<title>DatabaseModule&#45;&gt;AppModule</title>
<path fill="none" stroke="black" d="M780,-122.01C780,-138.05 780,-159 780,-159 780,-159 684.01,-159 684.01,-159"/>
<polygon fill="black" stroke="black" points="684.02,-155.5 674.01,-159 684.01,-162.5 684.02,-155.5"/>
</g>
<!-- GroupMembersModule -->
<g id="node5" class="node">
<title>GroupMembersModule</title>
<polygon fill="#8dd3c7" stroke="black" points="706.19,-122 703.19,-126 682.19,-126 679.19,-122 557.81,-122 557.81,-86 706.19,-86 706.19,-122"/>
<text text-anchor="middle" x="632" y="-99.8" font-family="Times,serif" font-size="14.00">GroupMembersModule</text>
</g>
<!-- GroupMembersModule&#45;&gt;AppModule -->
<g id="edge5" class="edge">
<title>GroupMembersModule&#45;&gt;AppModule</title>
<path fill="none" stroke="black" d="M632,-122.11C632,-122.11 632,-140.99 632,-140.99"/>
<polygon fill="black" stroke="black" points="628.5,-140.99 632,-150.99 635.5,-140.99 628.5,-140.99"/>
</g>
<!-- MessagesModule -->
<g id="node6" class="node">
<title>MessagesModule</title>
<polygon fill="#8dd3c7" stroke="black" points="539.97,-122 536.97,-126 515.97,-126 512.97,-122 426.03,-122 426.03,-86 539.97,-86 539.97,-122"/>
<text text-anchor="middle" x="483" y="-99.8" font-family="Times,serif" font-size="14.00">MessagesModule</text>
</g>
<!-- MessagesModule&#45;&gt;AppModule -->
<g id="edge6" class="edge">
<title>MessagesModule&#45;&gt;AppModule</title>
<path fill="none" stroke="black" d="M483,-122.01C483,-138.05 483,-159 483,-159 483,-159 580.1,-159 580.1,-159"/>
<polygon fill="black" stroke="black" points="580.1,-162.5 590.1,-159 580.1,-155.5 580.1,-162.5"/>
</g>
<!-- RelationshipsModule -->
<g id="node7" class="node">
<title>RelationshipsModule</title>
<polygon fill="#8dd3c7" stroke="black" points="407.77,-122 404.77,-126 383.77,-126 380.77,-122 272.23,-122 272.23,-86 407.77,-86 407.77,-122"/>
<text text-anchor="middle" x="340" y="-99.8" font-family="Times,serif" font-size="14.00">RelationshipsModule</text>
</g>
<!-- RelationshipsModule&#45;&gt;AppModule -->
<g id="edge7" class="edge">
<title>RelationshipsModule&#45;&gt;AppModule</title>
<path fill="none" stroke="black" d="M340,-122.27C340,-140.56 340,-166 340,-166 340,-166 580.16,-166 580.16,-166"/>
<polygon fill="black" stroke="black" points="580.16,-169.5 590.16,-166 580.16,-162.5 580.16,-169.5"/>
</g>
<!-- UsersModule -->
<g id="node8" class="node">
<title>UsersModule</title>
<polygon fill="#8dd3c7" stroke="black" points="253.92,-122 250.92,-126 229.92,-126 226.92,-122 162.08,-122 162.08,-86 253.92,-86 253.92,-122"/>
<text text-anchor="middle" x="208" y="-99.8" font-family="Times,serif" font-size="14.00">UsersModule</text>
</g>
<!-- UsersModule&#45;&gt;AppModule -->
<g id="edge8" class="edge">
<title>UsersModule&#45;&gt;AppModule</title>
<path fill="none" stroke="black" d="M208,-122.13C208,-142.57 208,-173 208,-173 208,-173 580.18,-173 580.18,-173"/>
<polygon fill="black" stroke="black" points="580.18,-176.5 590.18,-173 580.18,-169.5 580.18,-176.5"/>
</g>
<!-- AppService -->
<g id="node10" class="node">
<title>AppService</title>
<ellipse fill="#fdb462" stroke="black" cx="81" cy="-104" rx="56.74" ry="18"/>
<text text-anchor="middle" x="81" y="-99.8" font-family="Times,serif" font-size="14.00">AppService</text>
</g>
<!-- AppService&#45;&gt;AppModule -->
<g id="edge9" class="edge">
<title>AppService&#45;&gt;AppModule</title>
<path fill="none" stroke="black" d="M81,-122.01C81,-144.49 81,-180 81,-180 81,-180 580.13,-180 580.13,-180"/>
<polygon fill="black" stroke="black" points="580.13,-183.5 590.13,-180 580.13,-176.5 580.13,-183.5"/>
</g>
</g>
</svg>
