<?xml version="1.0" encoding="UTF-8" standalone="no"?>
<!DOCTYPE svg PUBLIC "-//W3C//DTD SVG 1.1//EN"
 "http://www.w3.org/Graphics/SVG/1.1/DTD/svg11.dtd">
<!-- Generated by graphviz version 2.47.0 (20210316.0004)
 -->
<!-- Title: dependencies Pages: 1 -->
<svg width="1777pt" height="580pt"
 viewBox="0.00 0.00 1777.00 580.00" xmlns="http://www.w3.org/2000/svg" xmlns:xlink="http://www.w3.org/1999/xlink">
<g id="graph0" class="graph" transform="scale(1 1) rotate(0) translate(4 576)">
<title>dependencies</title>
<polygon fill="white" stroke="transparent" points="-4,4 -4,-576 1773,-576 1773,4 -4,4"/>
<text text-anchor="start" x="863.51" y="-42.4" font-family="Times-12" font-weight="bold" font-size="14.00">Legend</text>
<polygon fill="#ffffb3" stroke="transparent" points="650.5,-10 650.5,-30 670.5,-30 670.5,-10 650.5,-10"/>
<text text-anchor="start" x="674.13" y="-15.4" font-family="Times-12" font-size="14.00"> &#160;Declarations</text>
<polygon fill="#8dd3c7" stroke="transparent" points="763.5,-10 763.5,-30 783.5,-30 783.5,-10 763.5,-10"/>
<text text-anchor="start" x="787.23" y="-15.4" font-family="Times-12" font-size="14.00"> &#160;Module</text>
<polygon fill="#80b1d3" stroke="transparent" points="849.5,-10 849.5,-30 869.5,-30 869.5,-10 849.5,-10"/>
<text text-anchor="start" x="873.28" y="-15.4" font-family="Times-12" font-size="14.00"> &#160;Bootstrap</text>
<polygon fill="#fdb462" stroke="transparent" points="946.5,-10 946.5,-30 966.5,-30 966.5,-10 946.5,-10"/>
<text text-anchor="start" x="970.17" y="-15.4" font-family="Times-12" font-size="14.00"> &#160;Providers</text>
<polygon fill="#fb8072" stroke="transparent" points="1042.5,-10 1042.5,-30 1062.5,-30 1062.5,-10 1042.5,-10"/>
<text text-anchor="start" x="1066.23" y="-15.4" font-family="Times-12" font-size="14.00"> &#160;Exports</text>
<g id="clust1" class="cluster">
<title>cluster_AppModule</title>
<polygon fill="none" stroke="black" stroke-dasharray="1,5" points="290,-146 290,-564 857,-564 857,-146 290,-146"/>
</g>
<g id="clust3" class="cluster">
<title>cluster_AppModule_imports</title>
<polygon fill="none" stroke="black" points="436,-154 436,-499 817,-499 817,-154 436,-154"/>
</g>
<g id="clust6" class="cluster">
<title>cluster_AppModule_providers</title>
<polygon fill="none" stroke="black" points="298,-447 298,-499 428,-499 428,-447 298,-447"/>
</g>
<g id="clust7" class="cluster">
<title>cluster_AuthModule</title>
<polygon fill="none" stroke="black" stroke-dasharray="1,5" points="1025,-211 1025,-279 1569,-279 1569,-211 1025,-211"/>
</g>
<g id="clust10" class="cluster">
<title>cluster_AuthModule_exports</title>
<polygon fill="none" stroke="black" points="1455,-219 1455,-271 1561,-271 1561,-219 1455,-219"/>
</g>
<g id="clust12" class="cluster">
<title>cluster_AuthModule_providers</title>
<polygon fill="none" stroke="black" points="1033,-219 1033,-271 1447,-271 1447,-219 1033,-219"/>
</g>
<g id="clust13" class="cluster">
<title>cluster_ConversationMembersModule</title>
<polygon fill="none" stroke="black" stroke-dasharray="1,5" points="865,-439 865,-507 1365,-507 1365,-439 865,-439"/>
</g>
<g id="clust16" class="cluster">
<title>cluster_ConversationMembersModule_exports</title>
<polygon fill="none" stroke="black" points="1153,-447 1153,-499 1357,-499 1357,-447 1153,-447"/>
</g>
<g id="clust18" class="cluster">
<title>cluster_ConversationMembersModule_providers</title>
<polygon fill="none" stroke="black" points="873,-447 873,-499 1145,-499 1145,-447 873,-447"/>
</g>
<g id="clust19" class="cluster">
<title>cluster_ConversationsModule</title>
<polygon fill="none" stroke="black" stroke-dasharray="1,5" points="1373,-439 1373,-507 1761,-507 1761,-439 1373,-439"/>
</g>
<g id="clust22" class="cluster">
<title>cluster_ConversationsModule_exports</title>
<polygon fill="none" stroke="black" points="1595,-447 1595,-499 1753,-499 1753,-447 1595,-447"/>
</g>
<g id="clust24" class="cluster">
<title>cluster_ConversationsModule_providers</title>
<polygon fill="none" stroke="black" points="1381,-447 1381,-499 1587,-499 1587,-447 1381,-447"/>
</g>
<g id="clust25" class="cluster">
<title>cluster_DatabaseModule</title>
<polygon fill="none" stroke="black" stroke-dasharray="1,5" points="865,-211 865,-279 1017,-279 1017,-211 865,-211"/>
</g>
<g id="clust28" class="cluster">
<title>cluster_DatabaseModule_exports</title>
<polygon fill="none" stroke="black" points="873,-219 873,-271 1009,-271 1009,-219 873,-219"/>
</g>
<g id="clust31" class="cluster">
<title>cluster_GroupMembersModule</title>
<polygon fill="none" stroke="black" stroke-dasharray="1,5" points="401,-70 401,-138 635,-138 635,-70 401,-70"/>
</g>
<g id="clust36" class="cluster">
<title>cluster_GroupMembersModule_providers</title>
<polygon fill="none" stroke="black" points="409,-78 409,-130 627,-130 627,-78 409,-78"/>
</g>
<g id="clust37" class="cluster">
<title>cluster_MessagesModule</title>
<polygon fill="none" stroke="black" stroke-dasharray="1,5" points="94,-363 94,-431 282,-431 282,-363 94,-363"/>
</g>
<g id="clust42" class="cluster">
<title>cluster_MessagesModule_providers</title>
<polygon fill="none" stroke="black" points="102,-371 102,-423 274,-423 274,-371 102,-371"/>
</g>
<g id="clust43" class="cluster">
<title>cluster_RelationshipsModule</title>
<polygon fill="none" stroke="black" stroke-dasharray="1,5" points="865,-363 865,-431 1245,-431 1245,-363 865,-363"/>
</g>
<g id="clust46" class="cluster">
<title>cluster_RelationshipsModule_exports</title>
<polygon fill="none" stroke="black" points="1083,-371 1083,-423 1237,-423 1237,-371 1083,-371"/>
</g>
<g id="clust48" class="cluster">
<title>cluster_RelationshipsModule_providers</title>
<polygon fill="none" stroke="black" points="873,-371 873,-423 1075,-423 1075,-371 873,-371"/>
</g>
<g id="clust49" class="cluster">
<title>cluster_UsersModule</title>
<polygon fill="none" stroke="black" stroke-dasharray="1,5" points="8,-287 8,-355 282,-355 282,-287 8,-287"/>
</g>
<g id="clust52" class="cluster">
<title>cluster_UsersModule_exports</title>
<polygon fill="none" stroke="black" points="164,-295 164,-347 274,-347 274,-295 164,-295"/>
</g>
<g id="clust54" class="cluster">
<title>cluster_UsersModule_providers</title>
<polygon fill="none" stroke="black" points="16,-295 16,-347 156,-347 156,-295 16,-295"/>
</g>
<!-- AuthModule -->
<g id="node1" class="node">
<title>AuthModule</title>
<polygon fill="#8dd3c7" stroke="black" points="808.55,-339 805.55,-343 784.55,-343 781.55,-339 721.45,-339 721.45,-303 808.55,-303 808.55,-339"/>
<text text-anchor="middle" x="765" y="-316.8" font-family="Times,serif" font-size="14.00">AuthModule</text>
</g>
<!-- AppModule -->
<g id="node9" class="node">
<title>AppModule</title>
<polygon fill="#8dd3c7" stroke="black" points="596.66,-556 593.66,-560 572.66,-560 569.66,-556 513.34,-556 513.34,-520 596.66,-520 596.66,-556"/>
<text text-anchor="middle" x="555" y="-533.8" font-family="Times,serif" font-size="14.00">AppModule</text>
</g>
<!-- AuthModule&#45;&gt;AppModule -->
<g id="edge1" class="edge">
<title>AuthModule&#45;&gt;AppModule</title>
<path fill="none" stroke="black" d="M808.62,-333C827.24,-333 844.76,-333 844.76,-333 844.76,-333 844.76,-542 844.76,-542 844.76,-542 606.82,-542 606.82,-542"/>
<polygon fill="black" stroke="black" points="606.82,-538.5 596.82,-542 606.82,-545.5 606.82,-538.5"/>
</g>
<!-- AuthService  -->
<g id="node11" class="node">
<title>AuthService </title>
<polygon fill="#fb8072" stroke="black" points="1552.98,-263 1463.02,-263 1463.02,-227 1552.98,-227 1552.98,-263"/>
<text text-anchor="middle" x="1508" y="-240.8" font-family="Times,serif" font-size="14.00">AuthService </text>
</g>
<!-- AuthModule&#45;&gt;AuthService  -->
<g id="edge11" class="edge">
<title>AuthModule&#45;&gt;AuthService </title>
<path fill="none" stroke="black" stroke-dasharray="5,2" d="M808.7,-327C967.97,-327 1508,-327 1508,-327 1508,-327 1508,-273.2 1508,-273.2"/>
<polygon fill="black" stroke="black" points="1511.5,-273.2 1508,-263.2 1504.5,-273.2 1511.5,-273.2"/>
</g>
<!-- ConversationMembersModule -->
<g id="node2" class="node">
<title>ConversationMembersModule</title>
<polygon fill="#8dd3c7" stroke="black" points="651.57,-415 648.57,-419 627.57,-419 624.57,-415 464.43,-415 464.43,-379 651.57,-379 651.57,-415"/>
<text text-anchor="middle" x="558" y="-392.8" font-family="Times,serif" font-size="14.00">ConversationMembersModule</text>
</g>
<!-- MessagesModule -->
<g id="node6" class="node">
<title>MessagesModule</title>
<polygon fill="#8dd3c7" stroke="black" points="611.97,-491 608.97,-495 587.97,-495 584.97,-491 498.03,-491 498.03,-455 611.97,-455 611.97,-491"/>
<text text-anchor="middle" x="555" y="-468.8" font-family="Times,serif" font-size="14.00">MessagesModule</text>
</g>
<!-- ConversationMembersModule&#45;&gt;MessagesModule -->
<g id="edge25" class="edge">
<title>ConversationMembersModule&#45;&gt;MessagesModule</title>
<path fill="none" stroke="black" d="M555,-415.01C555,-415.01 555,-444.85 555,-444.85"/>
<polygon fill="black" stroke="black" points="551.5,-444.85 555,-454.85 558.5,-444.85 551.5,-444.85"/>
</g>
<!-- ConversationMembersModule&#45;&gt;AppModule -->
<g id="edge2" class="edge">
<title>ConversationMembersModule&#45;&gt;AppModule</title>
<path fill="none" stroke="black" d="M481.24,-415.21C481.24,-451.21 481.24,-528 481.24,-528 481.24,-528 502.95,-528 502.95,-528"/>
<polygon fill="black" stroke="black" points="502.95,-531.5 512.95,-528 502.95,-524.5 502.95,-531.5"/>
</g>
<!-- ConversationMembersService  -->
<g id="node15" class="node">
<title>ConversationMembersService </title>
<polygon fill="#fb8072" stroke="black" points="1349.5,-491 1160.5,-491 1160.5,-455 1349.5,-455 1349.5,-491"/>
<text text-anchor="middle" x="1255" y="-468.8" font-family="Times,serif" font-size="14.00">ConversationMembersService </text>
</g>
<!-- ConversationMembersModule&#45;&gt;ConversationMembersService  -->
<g id="edge17" class="edge">
<title>ConversationMembersModule&#45;&gt;ConversationMembersService </title>
<path fill="none" stroke="black" stroke-dasharray="5,2" d="M625.17,-415.15C625.17,-428.74 625.17,-445 625.17,-445 625.17,-445 1194.67,-445 1194.67,-445 1194.67,-445 1194.67,-445.98 1194.67,-445.98"/>
<polygon fill="black" stroke="black" points="1191.17,-444.79 1194.67,-454.79 1198.17,-444.79 1191.17,-444.79"/>
</g>
<!-- ConversationsModule -->
<g id="node3" class="node">
<title>ConversationsModule</title>
<polygon fill="#8dd3c7" stroke="black" points="808.65,-415 805.65,-419 784.65,-419 781.65,-415 669.35,-415 669.35,-379 808.65,-379 808.65,-415"/>
<text text-anchor="middle" x="739" y="-392.8" font-family="Times,serif" font-size="14.00">ConversationsModule</text>
</g>
<!-- ConversationsModule&#45;&gt;AppModule -->
<g id="edge3" class="edge">
<title>ConversationsModule&#45;&gt;AppModule</title>
<path fill="none" stroke="black" d="M773.91,-415.04C773.91,-452.45 773.91,-535 773.91,-535 773.91,-535 606.69,-535 606.69,-535"/>
<polygon fill="black" stroke="black" points="606.69,-531.5 596.69,-535 606.69,-538.5 606.69,-531.5"/>
</g>
<!-- ConversationsService  -->
<g id="node17" class="node">
<title>ConversationsService </title>
<polygon fill="#fb8072" stroke="black" points="1744.58,-491 1603.42,-491 1603.42,-455 1744.58,-455 1744.58,-491"/>
<text text-anchor="middle" x="1674" y="-468.8" font-family="Times,serif" font-size="14.00">ConversationsService </text>
</g>
<!-- ConversationsModule&#45;&gt;ConversationsService  -->
<g id="edge21" class="edge">
<title>ConversationsModule&#45;&gt;ConversationsService </title>
<path fill="none" stroke="black" stroke-dasharray="5,2" d="M704.09,-415.21C704.09,-420.55 704.09,-425 704.09,-425 704.09,-425 1674,-425 1674,-425 1674,-425 1674,-444.85 1674,-444.85"/>
<polygon fill="black" stroke="black" points="1670.5,-444.85 1674,-454.85 1677.5,-444.85 1670.5,-444.85"/>
</g>
<!-- DatabaseModule -->
<g id="node4" class="node">
<title>DatabaseModule</title>
<polygon fill="#8dd3c7" stroke="black" points="721.35,-198 718.35,-202 697.35,-202 694.35,-198 610.65,-198 610.65,-162 721.35,-162 721.35,-198"/>
<text text-anchor="middle" x="666" y="-175.8" font-family="Times,serif" font-size="14.00">DatabaseModule</text>
</g>
<!-- DatabaseModule&#45;&gt;ConversationMembersModule -->
<g id="edge15" class="edge">
<title>DatabaseModule&#45;&gt;ConversationMembersModule</title>
<path fill="none" stroke="black" d="M707.47,-198.12C707.47,-245.43 707.47,-369 707.47,-369 707.47,-369 623.4,-369 623.4,-369 623.4,-369 623.4,-369.98 623.4,-369.98"/>
<polygon fill="black" stroke="black" points="619.9,-368.79 623.4,-378.79 626.9,-368.79 619.9,-368.79"/>
</g>
<!-- DatabaseModule&#45;&gt;ConversationsModule -->
<g id="edge19" class="edge">
<title>DatabaseModule&#45;&gt;ConversationsModule</title>
<path fill="none" stroke="black" d="M712.06,-198.13C712.06,-198.13 712.06,-368.77 712.06,-368.77"/>
<polygon fill="black" stroke="black" points="708.56,-368.77 712.06,-378.77 715.56,-368.77 708.56,-368.77"/>
</g>
<!-- DatabaseModule&#45;&gt;MessagesModule -->
<g id="edge26" class="edge">
<title>DatabaseModule&#45;&gt;MessagesModule</title>
<path fill="none" stroke="black" d="M721.79,-186C768.23,-186 826.79,-186 826.79,-186 826.79,-186 826.79,-467 826.79,-467 826.79,-467 621.98,-467 621.98,-467"/>
<polygon fill="black" stroke="black" points="621.98,-463.5 611.98,-467 621.98,-470.5 621.98,-463.5"/>
</g>
<!-- RelationshipsModule -->
<g id="node7" class="node">
<title>RelationshipsModule</title>
<polygon fill="#8dd3c7" stroke="black" points="702.77,-339 699.77,-343 678.77,-343 675.77,-339 567.23,-339 567.23,-303 702.77,-303 702.77,-339"/>
<text text-anchor="middle" x="635" y="-316.8" font-family="Times,serif" font-size="14.00">RelationshipsModule</text>
</g>
<!-- DatabaseModule&#45;&gt;RelationshipsModule -->
<g id="edge28" class="edge">
<title>DatabaseModule&#45;&gt;RelationshipsModule</title>
<path fill="none" stroke="black" d="M672.11,-198.14C672.11,-198.14 672.11,-292.93 672.11,-292.93"/>
<polygon fill="black" stroke="black" points="668.61,-292.92 672.11,-302.93 675.61,-292.93 668.61,-292.92"/>
</g>
<!-- UsersModule -->
<g id="node8" class="node">
<title>UsersModule</title>
<polygon fill="#8dd3c7" stroke="black" points="535.92,-263 532.92,-267 511.92,-267 508.92,-263 444.08,-263 444.08,-227 535.92,-227 535.92,-263"/>
<text text-anchor="middle" x="490" y="-240.8" font-family="Times,serif" font-size="14.00">UsersModule</text>
</g>
<!-- DatabaseModule&#45;&gt;UsersModule -->
<g id="edge32" class="edge">
<title>DatabaseModule&#45;&gt;UsersModule</title>
<path fill="none" stroke="black" d="M641.34,-198.27C641.34,-216.56 641.34,-242 641.34,-242 641.34,-242 545.82,-242 545.82,-242"/>
<polygon fill="black" stroke="black" points="545.82,-238.5 535.82,-242 545.82,-245.5 545.82,-238.5"/>
</g>
<!-- DatabaseModule&#45;&gt;AppModule -->
<g id="edge4" class="edge">
<title>DatabaseModule&#45;&gt;AppModule</title>
<path fill="none" stroke="black" d="M721.59,-174C779.76,-174 862.73,-174 862.73,-174 862.73,-174 862.73,-549 862.73,-549 862.73,-549 606.82,-549 606.82,-549"/>
<polygon fill="black" stroke="black" points="606.82,-545.5 596.82,-549 606.82,-552.5 606.82,-545.5"/>
</g>
<!-- DATA_SOURCE  -->
<g id="node19" class="node">
<title>DATA_SOURCE </title>
<polygon fill="#fb8072" stroke="black" points="1001.09,-263 880.91,-263 880.91,-227 1001.09,-227 1001.09,-263"/>
<text text-anchor="middle" x="941" y="-240.8" font-family="Times,serif" font-size="14.00">DATA_SOURCE </text>
</g>
<!-- DatabaseModule&#45;&gt;DATA_SOURCE  -->
<g id="edge23" class="edge">
<title>DatabaseModule&#45;&gt;DATA_SOURCE </title>
<path fill="none" stroke="black" stroke-dasharray="5,2" d="M716.64,-198.01C716.64,-214.05 716.64,-235 716.64,-235 716.64,-235 870.88,-235 870.88,-235"/>
<polygon fill="black" stroke="black" points="870.88,-238.5 880.88,-235 870.88,-231.5 870.88,-238.5"/>
</g>
<!-- GroupMembersModule -->
<g id="node5" class="node">
<title>GroupMembersModule</title>
<polygon fill="#8dd3c7" stroke="black" points="592.19,-198 589.19,-202 568.19,-202 565.19,-198 443.81,-198 443.81,-162 592.19,-162 592.19,-198"/>
<text text-anchor="middle" x="518" y="-175.8" font-family="Times,serif" font-size="14.00">GroupMembersModule</text>
</g>
<!-- GroupMembersModule&#45;&gt;AppModule -->
<g id="edge5" class="edge">
<title>GroupMembersModule&#45;&gt;AppModule</title>
<path fill="none" stroke="black" d="M443.69,-180C438.82,-180 435.81,-180 435.81,-180 435.81,-180 435.81,-542 435.81,-542 435.81,-542 503.31,-542 503.31,-542"/>
<polygon fill="black" stroke="black" points="503.31,-545.5 513.31,-542 503.31,-538.5 503.31,-545.5"/>
</g>
<!-- MessagesModule&#45;&gt;AppModule -->
<g id="edge6" class="edge">
<title>MessagesModule&#45;&gt;AppModule</title>
<path fill="none" stroke="black" d="M555,-491.11C555,-491.11 555,-509.99 555,-509.99"/>
<polygon fill="black" stroke="black" points="551.5,-509.99 555,-519.99 558.5,-509.99 551.5,-509.99"/>
</g>
<!-- RelationshipsModule&#45;&gt;ConversationMembersModule -->
<g id="edge16" class="edge">
<title>RelationshipsModule&#45;&gt;ConversationMembersModule</title>
<path fill="none" stroke="black" d="M595.26,-339.01C595.26,-339.01 595.26,-368.85 595.26,-368.85"/>
<polygon fill="black" stroke="black" points="591.76,-368.85 595.26,-378.85 598.76,-368.85 591.76,-368.85"/>
</g>
<!-- RelationshipsModule&#45;&gt;ConversationsModule -->
<g id="edge20" class="edge">
<title>RelationshipsModule&#45;&gt;ConversationsModule</title>
<path fill="none" stroke="black" d="M677.6,-339.01C677.6,-339.01 677.6,-368.85 677.6,-368.85"/>
<polygon fill="black" stroke="black" points="674.1,-368.85 677.6,-378.85 681.1,-368.85 674.1,-368.85"/>
</g>
<!-- RelationshipsModule&#45;&gt;AppModule -->
<g id="edge7" class="edge">
<title>RelationshipsModule&#45;&gt;AppModule</title>
<path fill="none" stroke="black" d="M660.36,-339.01C660.36,-389.37 660.36,-528 660.36,-528 660.36,-528 606.94,-528 606.94,-528"/>
<polygon fill="black" stroke="black" points="606.94,-524.5 596.94,-528 606.94,-531.5 606.94,-524.5"/>
</g>
<!-- RelationshipsService  -->
<g id="node22" class="node">
<title>RelationshipsService </title>
<polygon fill="#fb8072" stroke="black" points="1228.7,-415 1091.3,-415 1091.3,-379 1228.7,-379 1228.7,-415"/>
<text text-anchor="middle" x="1160" y="-392.8" font-family="Times,serif" font-size="14.00">RelationshipsService </text>
</g>
<!-- RelationshipsModule&#45;&gt;RelationshipsService  -->
<g id="edge30" class="edge">
<title>RelationshipsModule&#45;&gt;RelationshipsService </title>
<path fill="none" stroke="black" stroke-dasharray="5,2" d="M686.03,-339.21C686.03,-344.55 686.03,-349 686.03,-349 686.03,-349 1131.18,-349 1131.18,-349 1131.18,-349 1131.18,-368.85 1131.18,-368.85"/>
<polygon fill="black" stroke="black" points="1127.68,-368.85 1131.18,-378.85 1134.68,-368.85 1127.68,-368.85"/>
</g>
<!-- UsersModule&#45;&gt;AuthModule -->
<g id="edge10" class="edge">
<title>UsersModule&#45;&gt;AuthModule</title>
<path fill="none" stroke="black" d="M535.74,-249C613.96,-249 765.1,-249 765.1,-249 765.1,-249 765.1,-292.83 765.1,-292.83"/>
<polygon fill="black" stroke="black" points="761.6,-292.83 765.1,-302.83 768.6,-292.83 761.6,-292.83"/>
</g>
<!-- UsersModule&#45;&gt;RelationshipsModule -->
<g id="edge29" class="edge">
<title>UsersModule&#45;&gt;RelationshipsModule</title>
<path fill="none" stroke="black" d="M535.85,-256C557.9,-256 579.6,-256 579.6,-256 579.6,-256 579.6,-292.89 579.6,-292.89"/>
<polygon fill="black" stroke="black" points="576.1,-292.89 579.6,-302.89 583.1,-292.89 576.1,-292.89"/>
</g>
<!-- UsersModule&#45;&gt;AppModule -->
<g id="edge8" class="edge">
<title>UsersModule&#45;&gt;AppModule</title>
<path fill="none" stroke="black" d="M457.74,-263.14C457.74,-326.63 457.74,-535 457.74,-535 457.74,-535 503.19,-535 503.19,-535"/>
<polygon fill="black" stroke="black" points="503.19,-538.5 513.19,-535 503.19,-531.5 503.19,-538.5"/>
</g>
<!-- UsersService  -->
<g id="node24" class="node">
<title>UsersService </title>
<polygon fill="#fb8072" stroke="black" points="265.85,-339 172.15,-339 172.15,-303 265.85,-303 265.85,-339"/>
<text text-anchor="middle" x="219" y="-316.8" font-family="Times,serif" font-size="14.00">UsersService </text>
</g>
<!-- UsersModule&#45;&gt;UsersService  -->
<g id="edge33" class="edge">
<title>UsersModule&#45;&gt;UsersService </title>
<path fill="none" stroke="black" stroke-dasharray="5,2" d="M451.01,-263.01C451.01,-285.49 451.01,-321 451.01,-321 451.01,-321 275.95,-321 275.95,-321"/>
<polygon fill="black" stroke="black" points="275.95,-317.5 265.95,-321 275.95,-324.5 275.95,-317.5"/>
</g>
<!-- AppService -->
<g id="node10" class="node">
<title>AppService</title>
<ellipse fill="#fdb462" stroke="black" cx="363" cy="-473" rx="56.74" ry="18"/>
<text text-anchor="middle" x="363" y="-468.8" font-family="Times,serif" font-size="14.00">AppService</text>
</g>
<!-- AppService&#45;&gt;AppModule -->
<g id="edge9" class="edge">
<title>AppService&#45;&gt;AppModule</title>
<path fill="none" stroke="black" d="M363,-491.01C363,-513.49 363,-549 363,-549 363,-549 503.34,-549 503.34,-549"/>
<polygon fill="black" stroke="black" points="503.34,-552.5 513.34,-549 503.34,-545.5 503.34,-552.5"/>
</g>
<!-- AuthService -->
<g id="node12" class="node">
<title>AuthService</title>
<ellipse fill="#fdb462" stroke="black" cx="1380" cy="-245" rx="59.11" ry="18"/>
<text text-anchor="middle" x="1380" y="-240.8" font-family="Times,serif" font-size="14.00">AuthService</text>
</g>
<!-- AuthService&#45;&gt;AuthModule -->
<g id="edge12" class="edge">
<title>AuthService&#45;&gt;AuthModule</title>
<path fill="none" stroke="black" d="M1335.1,-256.88C1335.1,-278.25 1335.1,-321 1335.1,-321 1335.1,-321 818.79,-321 818.79,-321"/>
<polygon fill="black" stroke="black" points="818.79,-317.5 808.79,-321 818.79,-324.5 818.79,-317.5"/>
</g>
<!-- JwtStrategy -->
<g id="node13" class="node">
<title>JwtStrategy</title>
<ellipse fill="#fdb462" stroke="black" cx="1246" cy="-245" rx="56.76" ry="18"/>
<text text-anchor="middle" x="1246" y="-240.8" font-family="Times,serif" font-size="14.00">JwtStrategy</text>
</g>
<!-- JwtStrategy&#45;&gt;AuthModule -->
<g id="edge13" class="edge">
<title>JwtStrategy&#45;&gt;AuthModule</title>
<path fill="none" stroke="black" d="M1209.11,-258.83C1209.11,-279.23 1209.11,-315 1209.11,-315 1209.11,-315 818.8,-315 818.8,-315"/>
<polygon fill="black" stroke="black" points="818.8,-311.5 808.8,-315 818.8,-318.5 818.8,-311.5"/>
</g>
<!-- LocalStrategy -->
<g id="node14" class="node">
<title>LocalStrategy</title>
<ellipse fill="#fdb462" stroke="black" cx="1106" cy="-245" rx="65.41" ry="18"/>
<text text-anchor="middle" x="1106" y="-240.8" font-family="Times,serif" font-size="14.00">LocalStrategy</text>
</g>
<!-- LocalStrategy&#45;&gt;AuthModule -->
<g id="edge14" class="edge">
<title>LocalStrategy&#45;&gt;AuthModule</title>
<path fill="none" stroke="black" d="M1053.68,-255.86C1053.68,-274.12 1053.68,-309 1053.68,-309 1053.68,-309 818.84,-309 818.84,-309"/>
<polygon fill="black" stroke="black" points="818.84,-305.5 808.84,-309 818.84,-312.5 818.84,-305.5"/>
</g>
<!-- ConversationMembersService -->
<g id="node16" class="node">
<title>ConversationMembersService</title>
<ellipse fill="#fdb462" stroke="black" cx="1009" cy="-473" rx="127.91" ry="18"/>
<text text-anchor="middle" x="1009" y="-468.8" font-family="Times,serif" font-size="14.00">ConversationMembersService</text>
</g>
<!-- ConversationMembersService&#45;&gt;ConversationMembersModule -->
<g id="edge18" class="edge">
<title>ConversationMembersService&#45;&gt;ConversationMembersModule</title>
<path fill="none" stroke="black" d="M888.15,-479C779.99,-479 638.35,-479 638.35,-479 638.35,-479 638.35,-425.2 638.35,-425.2"/>
<polygon fill="black" stroke="black" points="641.85,-425.2 638.35,-415.2 634.85,-425.2 641.85,-425.2"/>
</g>
<!-- ConversationsService -->
<g id="node18" class="node">
<title>ConversationsService</title>
<ellipse fill="#fdb462" stroke="black" cx="1484" cy="-473" rx="95.48" ry="18"/>
<text text-anchor="middle" x="1484" y="-468.8" font-family="Times,serif" font-size="14.00">ConversationsService</text>
</g>
<!-- ConversationsService&#45;&gt;ConversationsModule -->
<g id="edge22" class="edge">
<title>ConversationsService&#45;&gt;ConversationsModule</title>
<path fill="none" stroke="black" d="M1414.03,-460.56C1414.03,-449.47 1414.03,-435 1414.03,-435 1414.03,-435 739,-435 739,-435 739,-435 739,-425.11 739,-425.11"/>
<polygon fill="black" stroke="black" points="742.5,-425.11 739,-415.11 735.5,-425.11 742.5,-425.11"/>
</g>
<!-- GroupMembersService -->
<g id="node20" class="node">
<title>GroupMembersService</title>
<ellipse fill="#fdb462" stroke="black" cx="518" cy="-104" rx="101.26" ry="18"/>
<text text-anchor="middle" x="518" y="-99.8" font-family="Times,serif" font-size="14.00">GroupMembersService</text>
</g>
<!-- GroupMembersService&#45;&gt;GroupMembersModule -->
<g id="edge24" class="edge">
<title>GroupMembersService&#45;&gt;GroupMembersModule</title>
<path fill="none" stroke="black" d="M518,-122.01C518,-122.01 518,-151.85 518,-151.85"/>
<polygon fill="black" stroke="black" points="514.5,-151.85 518,-161.85 521.5,-151.85 514.5,-151.85"/>
</g>
<!-- MessagesService -->
<g id="node21" class="node">
<title>MessagesService</title>
<ellipse fill="#fdb462" stroke="black" cx="188" cy="-397" rx="77.56" ry="18"/>
<text text-anchor="middle" x="188" y="-392.8" font-family="Times,serif" font-size="14.00">MessagesService</text>
</g>
<!-- MessagesService&#45;&gt;MessagesModule -->
<g id="edge27" class="edge">
<title>MessagesService&#45;&gt;MessagesModule</title>
<path fill="none" stroke="black" d="M265.83,-397C335.82,-397 427.72,-397 427.72,-397 427.72,-397 427.72,-473 427.72,-473 427.72,-473 487.69,-473 487.69,-473"/>
<polygon fill="black" stroke="black" points="487.69,-476.5 497.69,-473 487.69,-469.5 487.69,-476.5"/>
</g>
<!-- RelationshipsService -->
<g id="node23" class="node">
<title>RelationshipsService</title>
<ellipse fill="#fdb462" stroke="black" cx="974" cy="-397" rx="92.63" ry="18"/>
<text text-anchor="middle" x="974" y="-392.8" font-family="Times,serif" font-size="14.00">RelationshipsService</text>
</g>
<!-- RelationshipsService&#45;&gt;RelationshipsModule -->
<g id="edge31" class="edge">
<title>RelationshipsService&#45;&gt;RelationshipsModule</title>
<path fill="none" stroke="black" d="M941.37,-379.78C941.37,-369.72 941.37,-359 941.37,-359 941.37,-359 694.46,-359 694.46,-359 694.46,-359 694.46,-349.11 694.46,-349.11"/>
<polygon fill="black" stroke="black" points="697.96,-349.11 694.46,-339.11 690.96,-349.11 697.96,-349.11"/>
</g>
<!-- UsersService -->
<g id="node25" class="node">
<title>UsersService</title>
<ellipse fill="#fdb462" stroke="black" cx="86" cy="-321" rx="61.95" ry="18"/>
<text text-anchor="middle" x="86" y="-316.8" font-family="Times,serif" font-size="14.00">UsersService</text>
</g>
<!-- UsersService&#45;&gt;UsersModule -->
<g id="edge34" class="edge">
<title>UsersService&#45;&gt;UsersModule</title>
<path fill="none" stroke="black" d="M86,-302.99C86,-280.51 86,-245 86,-245 86,-245 434.05,-245 434.05,-245"/>
<polygon fill="black" stroke="black" points="434.05,-248.5 444.05,-245 434.05,-241.5 434.05,-248.5"/>
</g>
</g>
</svg>
