<?xml version="1.0" encoding="UTF-8" standalone="no"?>
<!DOCTYPE svg PUBLIC "-//W3C//DTD SVG 1.1//EN"
 "http://www.w3.org/Graphics/SVG/1.1/DTD/svg11.dtd">
<!-- Generated by graphviz version 2.47.0 (20210316.0004)
 -->
<!-- Title: dependencies Pages: 1 -->
<svg width="504pt" height="284pt"
 viewBox="0.00 0.00 504.00 284.00" xmlns="http://www.w3.org/2000/svg" xmlns:xlink="http://www.w3.org/1999/xlink">
<g id="graph0" class="graph" transform="scale(1 1) rotate(0) translate(4 280)">
<title>dependencies</title>
<polygon fill="white" stroke="transparent" points="-4,4 -4,-280 500,-280 500,4 -4,4"/>
<text text-anchor="start" x="227.01" y="-42.4" font-family="Times-12" font-weight="bold" font-size="14.00">Legend</text>
<polygon fill="#ffffb3" stroke="transparent" points="14,-10 14,-30 34,-30 34,-10 14,-10"/>
<text text-anchor="start" x="37.63" y="-15.4" font-family="Times-12" font-size="14.00"> &#160;Declarations</text>
<polygon fill="#8dd3c7" stroke="transparent" points="127,-10 127,-30 147,-30 147,-10 127,-10"/>
<text text-anchor="start" x="150.73" y="-15.4" font-family="Times-12" font-size="14.00"> &#160;Module</text>
<polygon fill="#80b1d3" stroke="transparent" points="213,-10 213,-30 233,-30 233,-10 213,-10"/>
<text text-anchor="start" x="236.78" y="-15.4" font-family="Times-12" font-size="14.00"> &#160;Bootstrap</text>
<polygon fill="#fdb462" stroke="transparent" points="310,-10 310,-30 330,-30 330,-10 310,-10"/>
<text text-anchor="start" x="333.67" y="-15.4" font-family="Times-12" font-size="14.00"> &#160;Providers</text>
<polygon fill="#fb8072" stroke="transparent" points="406,-10 406,-30 426,-30 426,-10 406,-10"/>
<text text-anchor="start" x="429.73" y="-15.4" font-family="Times-12" font-size="14.00"> &#160;Exports</text>
<g id="clust1" class="cluster">
<title>cluster_RelationshipsModule</title>
<polygon fill="none" stroke="black" stroke-dasharray="1,5" points="17,-70 17,-268 479,-268 479,-70 17,-70"/>
</g>
<g id="clust4" class="cluster">
<title>cluster_RelationshipsModule_exports</title>
<polygon fill="none" stroke="black" points="121,-208 121,-260 275,-260 275,-208 121,-208"/>
</g>
<g id="clust6" class="cluster">
<title>cluster_RelationshipsModule_providers</title>
<polygon fill="none" stroke="black" points="269,-78 269,-130 471,-130 471,-78 269,-78"/>
</g>
<g id="clust3" class="cluster">
<title>cluster_RelationshipsModule_imports</title>
<polygon fill="none" stroke="black" points="25,-78 25,-130 261,-130 261,-78 25,-78"/>
</g>
<!-- DatabaseModule -->
<g id="node1" class="node">
<title>DatabaseModule</title>
<polygon fill="#8dd3c7" stroke="black" points="253.35,-122 250.35,-126 229.35,-126 226.35,-122 142.65,-122 142.65,-86 253.35,-86 253.35,-122"/>
<text text-anchor="middle" x="198" y="-99.8" font-family="Times,serif" font-size="14.00">DatabaseModule</text>
</g>
<!-- RelationshipsModule -->
<g id="node3" class="node">
<title>RelationshipsModule</title>
<polygon fill="#8dd3c7" stroke="black" points="265.77,-187 262.77,-191 241.77,-191 238.77,-187 130.23,-187 130.23,-151 265.77,-151 265.77,-187"/>
<text text-anchor="middle" x="198" y="-164.8" font-family="Times,serif" font-size="14.00">RelationshipsModule</text>
</g>
<!-- DatabaseModule&#45;&gt;RelationshipsModule -->
<g id="edge1" class="edge">
<title>DatabaseModule&#45;&gt;RelationshipsModule</title>
<path fill="none" stroke="black" d="M198,-122.11C198,-122.11 198,-140.99 198,-140.99"/>
<polygon fill="black" stroke="black" points="194.5,-140.99 198,-150.99 201.5,-140.99 194.5,-140.99"/>
</g>
<!-- UsersModule -->
<g id="node2" class="node">
<title>UsersModule</title>
<polygon fill="#8dd3c7" stroke="black" points="124.92,-122 121.92,-126 100.92,-126 97.92,-122 33.08,-122 33.08,-86 124.92,-86 124.92,-122"/>
<text text-anchor="middle" x="79" y="-99.8" font-family="Times,serif" font-size="14.00">UsersModule</text>
</g>
<!-- UsersModule&#45;&gt;RelationshipsModule -->
<g id="edge2" class="edge">
<title>UsersModule&#45;&gt;RelationshipsModule</title>
<path fill="none" stroke="black" d="M124.74,-104C131.55,-104 136.35,-104 136.35,-104 136.35,-104 136.35,-140.89 136.35,-140.89"/>
<polygon fill="black" stroke="black" points="132.85,-140.89 136.35,-150.89 139.85,-140.89 132.85,-140.89"/>
</g>
<!-- RelationshipsService  -->
<g id="node4" class="node">
<title>RelationshipsService </title>
<polygon fill="#fb8072" stroke="black" points="266.7,-252 129.3,-252 129.3,-216 266.7,-216 266.7,-252"/>
<text text-anchor="middle" x="198" y="-229.8" font-family="Times,serif" font-size="14.00">RelationshipsService </text>
</g>
<!-- RelationshipsModule&#45;&gt;RelationshipsService  -->
<g id="edge3" class="edge">
<title>RelationshipsModule&#45;&gt;RelationshipsService </title>
<path fill="none" stroke="black" stroke-dasharray="5,2" d="M198,-187.11C198,-187.11 198,-205.99 198,-205.99"/>
<polygon fill="black" stroke="black" points="194.5,-205.99 198,-215.99 201.5,-205.99 194.5,-205.99"/>
</g>
<!-- RelationshipsService -->
<g id="node5" class="node">
<title>RelationshipsService</title>
<ellipse fill="#fdb462" stroke="black" cx="370" cy="-104" rx="92.63" ry="18"/>
<text text-anchor="middle" x="370" y="-99.8" font-family="Times,serif" font-size="14.00">RelationshipsService</text>
</g>
<!-- RelationshipsService&#45;&gt;RelationshipsModule -->
<g id="edge4" class="edge">
<title>RelationshipsService&#45;&gt;RelationshipsModule</title>
<path fill="none" stroke="black" d="M277.38,-104C266.77,-104 259.65,-104 259.65,-104 259.65,-104 259.65,-140.89 259.65,-140.89"/>
<polygon fill="black" stroke="black" points="256.15,-140.89 259.65,-150.89 263.15,-140.89 256.15,-140.89"/>
</g>
</g>
</svg>
